<?xml version="1.0" standalone="no"?>
<!DOCTYPE svg PUBLIC "-//W3C//DTD SVG 20010904//EN"
 "http://www.w3.org/TR/2001/REC-SVG-20010904/DTD/svg10.dtd">
<svg version="1.0" xmlns="http://www.w3.org/2000/svg"
 width="300.000000pt" height="300.000000pt" viewBox="0 0 300.000000 300.000000"
 preserveAspectRatio="xMidYMid meet">
<metadata>
Created by potrace 1.10, written by Peter Selinger 2001-2011
</metadata>
<g transform="translate(0.000000,300.000000) scale(0.100000,-0.100000)"
fill="#000000" stroke="none">
<path d="M1480 2970 c-46 -10 -129 -39 -160 -57 -14 -7 -54 -29 -90 -49 -127
-69 -155 -86 -177 -107 -13 -11 -23 -17 -23 -13 0 4 -18 -11 -40 -34 -54 -56
-55 -78 -2 -41 152 105 298 185 429 235 122 47 177 47 290 0 22 -9 35 -23 43
-49 15 -47 8 -54 -25 -21 -38 38 -38 32 -3 -25 26 -41 33 -47 38 -33 5 14 11
8 23 -26 21 -57 33 -124 52 -282 22 -181 21 -182 -25 -231 -35 -37 -40 -39
-40 -20 0 12 9 44 19 71 18 46 19 54 5 104 -17 66 -63 173 -70 165 -3 -3 -2
-11 2 -18 8 -13 9 -19 17 -94 3 -22 10 -53 16 -69 11 -28 6 -92 -9 -101 -4 -2
-6 -20 -4 -40 2 -36 -15 -55 -50 -55 -22 0 -20 20 6 47 l21 23 -29 0 c-42 0
-120 -25 -106 -34 7 -4 17 -4 22 -1 6 4 9 1 8 -6 -3 -10 138 -69 164 -69 4 0
10 10 14 22 3 12 16 31 27 42 11 12 17 16 13 9 -3 -6 -1 -15 6 -19 7 -4 10 -4
6 1 -4 4 3 26 14 49 28 52 27 131 -3 276 -11 58 -20 118 -20 133 1 17 -3 26
-9 22 -10 -6 -14 6 -10 38 1 10 -7 28 -17 40 -10 11 -12 17 -5 13 6 -4 12 -2
12 3 0 6 -7 11 -15 11 -17 0 -19 18 -6 39 13 21 -8 72 -42 103 -48 44 -178 67
-267 48z"/>
<path d="M1492 2788 c-6 -7 -18 -42 -27 -78 -25 -99 -87 -289 -102 -309 -1 -2
-31 22 -65 54 -128 119 -286 221 -307 199 -5 -5 0 -35 12 -71 20 -59 22 -62
39 -46 19 17 25 39 9 28 -5 -3 -12 -2 -14 2 -3 5 8 9 24 9 16 1 29 0 29 -2 0
-2 -13 -19 -30 -37 l-29 -34 21 -67 c18 -56 23 -64 32 -49 5 10 9 53 8 95 0
43 3 80 8 83 6 4 10 -16 10 -47 0 -30 6 -78 14 -108 7 -30 13 -72 14 -92 0
-31 8 -45 46 -83 l46 -44 -1 32 c0 18 -3 27 -5 20 -10 -23 -67 22 -70 56 -4
36 4 39 36 11 13 -11 19 -20 15 -20 -4 0 3 -9 16 -21 20 -17 25 -35 33 -107 5
-48 8 -122 7 -165 -3 -104 -20 -132 -127 -202 -46 -30 -84 -57 -84 -60 0 -14
139 71 168 103 18 20 32 29 32 21 0 -8 24 31 54 86 83 157 107 199 127 218 54
52 -10 75 -88 32 -25 -15 -51 -24 -58 -21 -7 2 -15 22 -18 44 -4 22 -14 45
-22 52 -8 7 -15 19 -15 26 0 8 -7 14 -15 14 -8 0 -15 9 -15 19 0 11 -13 27
-29 37 l-30 17 34 41 c27 34 31 45 24 65 -18 47 0 32 30 -25 24 -47 30 -54 31
-34 1 22 2 23 11 8 5 -10 17 -18 24 -18 9 0 15 -10 16 -22 0 -22 1 -22 9 -3 7
18 9 16 16 -13 4 -20 10 -29 14 -22 5 8 15 -1 29 -24 31 -49 37 -46 9 5 l-23
40 22 19 c28 22 39 51 54 137 7 43 22 84 40 112 23 35 29 56 29 98 0 56 -2 60
-18 41z m-331 -278 c6 0 9 -12 7 -27 -5 -45 -23 -32 -25 17 -1 25 1 37 4 28 2
-10 9 -18 14 -18z m224 -371 c-18 -27 -37 -59 -40 -70 -8 -24 -36 -59 -47 -59
-5 0 -8 12 -8 26 0 14 -4 33 -10 43 -5 10 -11 30 -14 45 -5 27 1 33 39 39 11
1 26 6 33 11 19 12 66 24 74 19 4 -2 -8 -26 -27 -54z"/>
<path d="M1577 2657 c-64 -61 -117 -119 -117 -127 0 -8 -3 -26 -7 -40 l-6 -25
26 28 c15 15 27 32 27 36 0 5 46 52 101 105 78 73 107 95 126 94 32 -3 46 -36
48 -110 1 -51 -1 -56 -17 -47 -16 9 -15 3 6 -45 45 -100 48 -100 41 4 -3 52
-13 122 -21 156 -14 54 -19 62 -48 72 -18 7 -34 12 -37 12 -2 0 -57 -51 -122
-113z"/>
<path d="M983 2540 c2 -8 -2 -23 -11 -32 -17 -21 -4 -24 21 -5 15 11 15 14 0
32 -9 11 -13 14 -10 5z"/>
<path d="M1093 2372 c-10 -32 -9 -39 5 -55 17 -16 17 -14 15 34 -1 28 -3 53
-5 54 -2 2 -9 -13 -15 -33z"/>
<path d="M1405 2351 c17 -49 45 -104 51 -99 9 10 -29 115 -46 126 -18 11 -18
10 -5 -27z"/>
<path d="M1500 2092 c-60 -59 -84 -88 -65 -78 40 20 95 60 73 52 -10 -3 -18
-1 -18 5 0 5 8 13 18 16 9 4 31 22 49 41 34 35 59 39 77 10 13 -22 10 -24 -55
-48 -30 -11 -45 -19 -34 -19 11 0 51 11 90 24 52 18 72 21 77 12 15 -23 8 -37
-19 -37 -39 0 -120 -32 -146 -58 -21 -22 -21 -22 -1 -22 11 0 39 9 62 20 22
11 50 20 62 20 56 0 159 32 191 60 l34 30 -25 19 c-14 11 -22 23 -18 27 4 3
20 -7 37 -23 21 -21 28 -36 24 -54 -3 -16 11 -50 41 -104 25 -44 46 -83 46
-87 0 -14 16 -9 53 16 l35 24 36 -34 c20 -19 36 -41 36 -50 0 -8 4 -13 9 -10
15 10 -1 56 -30 87 -16 17 -33 28 -39 24 -5 -3 -10 -2 -10 3 0 5 -7 9 -15 9
-8 0 -13 -3 -11 -6 1 -3 -5 -13 -15 -23 -16 -15 -19 -13 -48 34 -17 27 -31 53
-31 58 0 5 -7 15 -15 24 -17 16 -10 49 9 40 6 -3 2 2 -9 11 -11 9 -20 20 -20
25 0 15 -36 37 -79 48 l-38 11 6 -39 c6 -39 6 -40 -24 -40 -16 0 -30 4 -30 9
0 5 -15 11 -32 13 -18 3 -58 16 -88 29 l-55 25 -95 -94z"/>
<path d="M1417 2113 c-40 -64 -41 -69 -5 -33 19 19 35 42 35 52 2 26 -4 22
-30 -19z"/>
<path d="M1230 1996 c-7 -26 -9 -54 -4 -67 6 -19 10 -11 16 41 4 35 6 66 4 67
-2 2 -9 -16 -16 -41z"/>
<path d="M1805 2030 c-3 -5 18 -22 47 -36 52 -26 107 -79 94 -91 -3 -4 -16 3
-29 14 -75 67 -180 104 -242 84 l-30 -9 40 -3 c22 -1 51 -3 65 -3 29 -2 87
-28 146 -68 23 -15 47 -28 53 -30 18 -5 111 -95 111 -109 0 -6 6 -9 13 -6 8 3
12 -9 12 -44 0 -27 -3 -49 -8 -49 -9 0 13 -40 47 -87 16 -22 26 -54 31 -105 5
-40 7 -77 6 -83 -1 -5 4 -14 11 -20 14 -10 10 -98 -7 -195 -5 -27 -4 -31 5
-18 5 9 13 45 16 80 8 94 12 108 29 102 8 -4 15 -12 15 -20 0 -8 3 -14 8 -14
4 0 20 -11 35 -25 15 -14 27 -22 27 -18 0 4 4 1 10 -7 5 -8 12 -12 15 -9 3 4
-20 30 -51 58 -31 29 -54 55 -50 58 3 4 24 -10 45 -31 21 -21 41 -34 43 -29 3
4 3 2 2 -4 -2 -7 6 -17 16 -23 22 -12 26 -1 8 19 -11 11 -10 13 5 7 10 -3 21
-6 23 -6 9 0 3 -24 -9 -39 -14 -16 -47 -126 -46 -152 0 -8 9 14 20 49 14 43
24 60 32 55 7 -4 6 0 -2 10 -28 35 -4 25 46 -18 28 -24 53 -42 57 -40 3 3 4 2
1 -1 -2 -4 7 -20 21 -37 45 -54 16 -41 -37 17 -51 56 -79 70 -79 40 0 -8 5
-12 11 -9 9 6 69 -50 69 -64 0 -4 10 -11 23 -16 14 -6 23 -21 26 -40 4 -29 4
-30 10 -5 4 14 13 25 20 25 16 0 73 -105 66 -122 -2 -7 -1 -13 4 -13 5 0 8
-28 7 -62 -1 -35 0 -74 2 -86 8 -41 22 -2 22 60 0 46 -8 76 -41 150 -53 119
-59 161 -28 194 12 13 17 24 11 24 -6 0 -25 26 -41 59 -24 47 -28 64 -21 87 6
22 9 24 10 9 1 -11 2 -23 1 -28 0 -4 11 -29 25 -56 17 -31 32 -47 40 -44 8 3
12 8 11 12 -2 3 -12 24 -22 46 -10 22 -21 42 -24 45 -3 3 -17 22 -31 42 -14
21 -32 38 -42 38 -9 0 -18 5 -20 12 -3 7 -7 5 -11 -6 -4 -10 -3 -15 3 -11 6 3
10 0 10 -8 0 -8 9 -17 20 -20 11 -3 20 -12 20 -21 0 -23 -8 -20 -46 19 -19 20
-34 30 -34 25 0 -18 -41 0 -90 38 -78 62 -130 116 -130 135 0 13 12 5 41 -30
23 -26 44 -50 46 -53 3 -3 -1 9 -8 25 -18 41 -60 87 -76 81 -7 -3 -13 1 -13 8
0 8 -7 16 -15 20 -20 7 -19 -3 2 -26 9 -10 13 -21 9 -26 -4 -4 -23 10 -43 31
-25 28 -34 45 -30 63 2 13 0 24 -4 24 -15 0 -10 32 11 75 33 68 25 88 -41 98
-29 4 -42 1 -60 -16 -13 -12 -24 -16 -26 -10 -11 32 -97 132 -131 151 -45 25
-48 26 -57 12z m295 -166 c0 -21 -19 -64 -28 -64 -10 0 -32 44 -32 65 0 9 11
13 30 13 17 -1 30 -6 30 -14z m98 -353 c8 -23 27 -51 43 -63 16 -12 29 -28 29
-35 0 -9 5 -11 13 -7 6 4 9 3 4 -1 -4 -5 0 -19 8 -32 19 -29 12 -30 -16 -2
-14 14 -29 19 -45 16 -31 -6 -52 19 -59 68 -3 22 -8 55 -11 74 -8 48 16 36 34
-18z m108 -45 c35 -36 64 -73 64 -82 0 -14 3 -15 12 -6 9 9 17 6 34 -13 22
-24 40 -63 32 -70 -2 -3 -16 7 -31 20 -14 14 -33 25 -41 25 -15 0 -56 50 -56
68 0 6 -4 12 -8 14 -12 4 -86 108 -77 108 3 0 35 -29 71 -64z m188 -139 c4 4
4 0 1 -8 -3 -9 1 -22 10 -29 10 -9 15 -31 15 -73 0 -33 -3 -57 -7 -53 -5 4 -8
11 -8 14 -1 4 -11 33 -23 65 -26 67 -29 106 -9 88 8 -6 17 -8 21 -4z m-55 -51
c22 -4 52 -86 31 -86 -15 0 -88 53 -95 68 -8 21 5 34 29 27 11 -3 27 -7 35 -9z"/>
<path d="M1375 1982 c-15 -11 -17 -33 -4 -48 10 -12 3 -23 -34 -60 -26 -25
-47 -50 -47 -55 0 -5 -4 -9 -9 -9 -5 0 -4 15 2 35 6 19 16 35 24 35 7 0 13 5
13 10 0 21 2 25 17 43 9 9 13 20 9 25 -4 4 -14 -2 -21 -12 -26 -35 -95 -174
-95 -191 0 -14 -21 -73 -51 -140 -11 -25 -74 -203 -129 -365 -23 -69 -50 -141
-60 -160 -10 -19 -44 -98 -75 -175 -31 -77 -98 -213 -147 -302 l-90 -162 15
-68 c29 -122 29 -131 12 -184 -13 -37 -14 -54 -6 -62 6 -6 12 -40 13 -76 2
-64 2 -64 5 -13 3 38 8 52 19 52 10 0 12 4 7 13 -4 6 -8 51 -8 99 0 47 3 81 7
75 5 -7 8 0 8 16 0 15 -4 27 -9 27 -4 0 -11 19 -14 41 -3 23 -10 45 -15 48 -7
4 -4 19 5 41 9 19 17 37 18 40 17 50 77 144 100 157 7 5 33 49 57 100 24 50
39 89 34 86 -6 -4 -6 1 -2 13 4 10 14 39 22 64 8 25 19 54 24 65 5 11 16 37
24 58 8 21 21 44 29 51 13 14 19 31 68 196 12 41 32 107 45 147 13 39 24 77
24 83 0 7 14 41 30 77 17 35 30 72 30 80 0 9 3 13 7 9 4 -4 7 -26 6 -49 l-2
-42 9 44 c23 109 40 149 86 197 73 78 107 142 67 127 -12 -5 -15 -2 -10 10 7
19 6 20 -8 9z"/>
<path d="M1580 1973 c0 -3 7 -14 16 -24 14 -15 12 -18 -20 -38 -76 -48 -116
-119 -131 -238 l-5 -48 21 50 c11 27 25 53 31 56 6 4 8 14 5 23 -10 25 3 71
27 99 23 26 138 87 165 87 25 0 -18 -39 -47 -42 -19 -2 -28 -12 -38 -40 -16
-46 -11 -47 23 -8 l25 30 28 -20 c16 -11 32 -20 37 -18 4 1 19 -4 33 -10 14
-6 44 -16 68 -22 23 -6 42 -17 42 -24 0 -8 15 -21 34 -30 19 -9 39 -28 46 -46
7 -17 15 -29 17 -27 6 6 -35 105 -55 133 -9 13 -22 22 -29 19 -6 -2 -17 3 -24
11 -8 9 -23 14 -37 11 -25 -5 -83 10 -117 30 -16 9 -17 13 -5 27 16 20 82 14
145 -13 38 -17 105 -81 105 -101 0 -5 11 -21 25 -36 47 -51 92 -129 106 -184
11 -45 14 -50 17 -27 4 32 -24 98 -74 174 -19 28 -34 54 -34 57 0 3 12 6 27 6
l26 0 -24 26 c-13 14 -50 41 -83 60 -62 37 -217 87 -240 78 -7 -3 -30 2 -51
10 -41 17 -55 20 -55 9z"/>
<path d="M1427 1913 c-20 -27 -34 -49 -33 -51 2 -1 27 13 57 33 41 26 48 35
32 35 -16 0 -21 4 -17 15 11 27 -4 15 -39 -32z"/>
<path d="M1765 1780 c2 -12 26 -66 53 -119 27 -53 52 -114 55 -136 8 -53 41
-172 51 -182 12 -12 0 91 -14 116 -16 31 -8 35 28 14 41 -23 54 -55 49 -117
-2 -28 -2 -39 0 -23 2 15 8 25 12 22 5 -2 14 37 20 88 7 50 15 107 18 126 5
28 3 33 -10 28 -10 -4 -18 0 -21 11 -3 9 -3 -3 0 -28 6 -51 5 -132 0 -138 -6
-5 -99 68 -110 85 -4 8 -6 27 -3 43 4 17 0 36 -11 51 -9 13 -15 33 -13 43 2
13 -2 17 -12 13 -18 -7 -29 16 -20 38 3 9 2 15 -3 13 -9 -3 -64 48 -63 58 0 3
-2 8 -5 11 -3 3 -3 -4 -1 -17z"/>
<path d="M1530 1741 l0 -46 15 29 c19 36 19 63 0 63 -11 0 -15 -12 -15 -46z"/>
<path d="M1737 1763 c-8 -13 0 -78 13 -102 6 -12 8 -27 4 -33 -4 -6 5 -21 22
-35 37 -29 16 -30 -22 -1 -25 19 -27 20 -14 3 8 -11 27 -30 43 -43 15 -13 25
-28 22 -32 -3 -5 -1 -11 5 -15 5 -3 10 -14 10 -24 0 -10 9 -30 21 -45 27 -34
21 -59 -18 -71 -43 -14 -49 -22 -18 -22 14 0 28 3 31 8 3 5 19 2 36 -7 l30
-16 -7 32 c-4 17 -18 58 -31 90 -13 33 -25 68 -27 77 -2 10 -8 27 -14 38 -6
11 -18 45 -28 75 -26 78 -52 133 -58 123z"/>
<path d="M1386 1663 c-24 -107 -24 -109 -38 -95 -6 6 -11 28 -10 49 l2 37 -23
-35 c-24 -35 -67 -134 -67 -152 0 -6 12 13 28 42 l27 54 6 -37 c3 -20 9 -40
14 -44 8 -7 -2 78 -12 104 -3 8 0 14 5 14 6 0 14 -16 18 -35 7 -39 11 -41 38
-20 29 22 36 10 36 -63 0 -51 -3 -63 -12 -54 -17 17 -48 15 -48 -4 0 -11 6
-14 21 -9 14 5 19 3 15 -3 -4 -6 2 -8 14 -5 12 3 20 2 19 -3 -1 -5 1 -16 4
-24 3 -8 8 -24 11 -35 3 -11 3 0 0 25 -2 25 -7 80 -11 123 -3 43 -10 80 -14
83 -5 3 -4 14 1 25 14 24 -5 26 -19 2 -12 -20 -14 -9 -5 24 4 13 10 20 15 17
5 -3 9 18 9 45 0 28 -1 51 -3 51 -2 0 -11 -35 -21 -77z"/>
<path d="M2130 1720 c0 -5 6 -10 13 -10 9 0 9 -2 -1 -9 -10 -6 19 -24 93 -62
l107 -53 33 -71 c21 -46 38 -72 49 -72 16 0 24 42 9 49 -5 2 -21 30 -38 63
-30 59 -32 61 -140 117 -119 61 -125 63 -125 48z"/>
<path d="M1569 1712 c-1 -7 -2 -15 -3 -19 -1 -5 -6 -24 -11 -43 -5 -19 -9 -42
-11 -50 -7 -49 -55 -231 -69 -264 -6 -13 -5 -17 3 -13 27 18 117 376 98 394
-3 4 -7 1 -7 -5z"/>
<path d="M1482 1671 c-7 -19 -12 -43 -11 -55 1 -12 7 -2 15 24 17 53 13 80 -4
31z"/>
<path d="M1509 1663 c-5 -16 -18 -44 -29 -65 -10 -20 -16 -38 -14 -41 3 -3 1
-15 -6 -26 -15 -30 1 -25 25 6 10 15 18 37 17 49 -1 12 5 41 13 63 16 45 11
57 -6 14z"/>
<path d="M1614 1642 c-12 -8 -37 -73 -30 -79 5 -6 47 68 44 78 -2 5 -8 5 -14
1z"/>
<path d="M830 1521 c-36 -44 -75 -85 -87 -92 -13 -7 -19 -17 -16 -26 3 -8 0
-19 -8 -23 -7 -5 -11 -12 -7 -15 3 -4 41 40 85 96 97 128 105 139 101 139 -2
0 -33 -36 -68 -79z"/>
<path d="M1376 1528 c-14 -44 -15 -78 -2 -78 9 0 15 15 18 41 3 39 -8 65 -16
37z"/>
<path d="M2094 1495 c2 -16 12 -80 22 -142 17 -111 17 -112 -4 -175 -12 -34
-18 -66 -14 -70 4 -4 16 29 26 72 19 77 19 85 3 183 -9 56 -21 116 -27 132
l-10 30 4 -30z"/>
<path d="M1625 1477 c-46 -49 -75 -88 -75 -101 0 -7 3 -8 8 -1 9 14 28 13 42
-1 25 -25 -48 -109 -78 -90 -5 3 -12 -3 -15 -14 -6 -25 0 -25 38 -1 51 32 125
107 146 147 23 46 23 44 0 44 -21 0 -34 -23 -21 -36 5 -5 -5 -25 -21 -44 -21
-24 -29 -29 -29 -17 0 9 -4 17 -10 17 -5 0 -10 7 -10 15 0 8 9 15 19 15 22 0
36 16 22 24 -5 4 -11 0 -14 -6 -2 -7 -7 -10 -11 -7 -8 7 39 59 54 59 5 0 10 7
10 15 0 24 -23 17 -55 -18z"/>
<path d="M1066 1431 c-20 -39 -40 -71 -44 -71 -4 0 -7 -18 -7 -40 0 -22 3 -39
8 -37 10 3 88 209 82 215 -2 2 -20 -28 -39 -67z"/>
<path d="M1235 1400 c8 -16 15 -35 15 -43 0 -8 6 -17 14 -20 9 -4 6 10 -10 44
-13 27 -26 49 -29 49 -3 0 1 -13 10 -30z"/>
<path d="M1327 1362 c-20 -41 -14 -102 9 -102 18 0 18 39 0 46 -8 3 -12 13 -9
25 3 10 8 17 12 15 4 -3 8 9 9 25 1 16 1 29 0 29 -2 0 -11 -17 -21 -38z"/>
<path d="M1666 1304 c-46 -31 -71 -52 -51 -43 17 8 59 27 75 34 8 3 31 15 50
25 l35 19 -32 -2 c-17 -1 -52 -16 -77 -33z"/>
<path d="M2004 1264 c5 -17 3 -23 -4 -19 -6 4 -10 -12 -9 -47 1 -51 1 -52 10
-18 16 65 19 110 8 110 -7 0 -9 -10 -5 -26z"/>
<path d="M2085 1245 c-11 -19 -16 -37 -12 -41 4 -4 14 10 22 31 21 48 14 55
-10 10z"/>
<path d="M1413 1240 c1 -19 -2 -35 -8 -36 -16 -1 -85 -37 -85 -44 0 -6 96 35
108 45 2 2 -1 18 -7 36 l-10 34 2 -35z"/>
<path d="M1941 1119 c-12 -61 -21 -113 -18 -115 2 -2 14 45 27 106 13 61 21
113 18 115 -3 3 -15 -45 -27 -106z"/>
<path d="M1464 1103 c-15 -21 -29 -40 -30 -42 -1 -1 -9 1 -16 5 -7 4 -21 9
-32 9 -18 2 -18 1 -1 -12 26 -18 40 -17 85 12 26 16 38 31 37 45 -2 29 -11 25
-43 -17z"/>
<path d="M1690 1084 c-21 -4 -94 -20 -228 -50 -31 -6 -18 -24 19 -24 17 0 28
4 25 9 -7 11 53 28 154 42 89 12 119 6 176 -36 19 -14 23 -14 33 -1 11 13 10
15 -6 12 -11 -2 -30 4 -43 14 -14 11 -18 18 -10 17 8 -1 16 2 18 8 2 10 -95
16 -138 9z"/>
<path d="M1308 1043 c-3 -13 -2 -23 4 -23 5 0 7 -4 4 -8 -5 -8 29 -92 38 -92
6 0 0 22 -15 55 -4 11 -12 36 -17 55 -7 31 -9 32 -14 13z"/>
<path d="M2537 1013 c6 -44 -24 -122 -74 -193 l-25 -35 6 30 c3 17 8 41 12 55
6 21 4 23 -7 12 -15 -14 -29 -151 -17 -158 5 -3 8 -19 8 -35 0 -17 -4 -28 -9
-24 -13 7 -24 -30 -26 -90 -1 -47 -29 -115 -47 -115 -4 0 -3 -11 2 -25 5 -14
9 -29 8 -33 -1 -4 3 -16 9 -28 7 -11 11 -29 11 -40 -1 -10 2 -29 6 -41 5 -15
3 -23 -4 -23 -6 0 -13 13 -16 30 -4 16 -13 35 -20 41 -18 14 -17 6 1 -55 21
-69 20 -102 -5 -109 -13 -3 -20 -14 -20 -31 0 -25 1 -25 33 -12 17 8 40 17 51
20 17 6 18 13 11 84 -4 42 -16 105 -27 140 l-21 62 31 39 c26 32 30 45 25 74
-7 46 36 210 89 341 39 94 40 100 25 130 l-15 31 5 -42z"/>
<path d="M1972 1004 c-1 -17 -4 -47 -7 -65 l-5 -34 11 34 c5 18 8 47 6 65 l-4
31 -1 -31z"/>
<path d="M1526 1001 c8 -7 55 -25 134 -50 44 -15 26 2 -20 18 -74 26 -123 40
-114 32z"/>
<path d="M2610 1008 c0 -3 7 -20 16 -38 19 -37 23 -119 11 -230 -7 -69 -6 -73
8 -55 11 14 14 31 10 60 -4 22 -1 62 5 88 12 56 0 116 -31 155 -10 14 -19 23
-19 20z"/>
<path d="M2397 884 c-21 -14 -37 -31 -36 -37 6 -48 -15 -44 -25 4 -3 18 -8 30
-11 28 -2 -3 1 -25 6 -49 6 -25 11 -64 10 -87 0 -24 4 -43 10 -43 6 0 8 7 5
17 -4 9 1 39 9 67 28 86 26 83 36 61 8 -17 9 -16 6 8 -3 20 0 27 13 27 10 0
20 7 24 15 8 21 -4 19 -47 -11z"/>
<path d="M1322 883 c-6 -3 -9 -9 -6 -15 4 -6 10 -5 15 3 6 10 9 4 9 -18 0 -18
5 -33 10 -33 14 0 12 33 -2 52 -7 9 -19 14 -26 11z"/>
<path d="M2072 839 c2 -21 8 -33 16 -31 6 1 12 -2 12 -7 0 -14 57 -71 70 -71
7 0 -8 22 -34 50 -25 27 -46 56 -46 64 0 8 -5 18 -11 21 -7 5 -9 -5 -7 -26z"/>
<path d="M2127 825 c12 -16 32 -41 46 -54 26 -23 26 -23 24 -2 -1 11 -5 21 -9
21 -4 0 -16 8 -26 18 -10 9 -26 24 -37 32 -17 13 -17 12 2 -15z"/>
<path d="M2387 761 c-2 -10 -1 -25 4 -32 5 -8 3 -16 -4 -21 -9 -5 -9 -10 0
-19 8 -8 14 -6 23 10 6 12 7 27 3 34 -4 6 -6 20 -5 30 4 23 -14 22 -21 -2z"/>
<path d="M1457 678 c20 -42 39 -75 41 -73 2 2 -4 17 -12 34 -9 16 -16 36 -16
43 -1 7 -12 27 -26 43 -21 25 -19 17 13 -47z"/>
<path d="M1040 573 c0 -12 7 -28 15 -35 9 -7 22 -19 30 -26 8 -7 16 -8 20 -3
3 6 -3 15 -15 21 -11 6 -26 23 -34 38 -14 25 -15 25 -16 5z"/>
<path d="M2298 335 c-19 -44 -41 -75 -53 -75 -5 0 -16 -7 -25 -15 -14 -13 -20
-12 -53 11 -20 13 -37 22 -37 19 0 -3 -8 -1 -18 4 -10 5 -38 12 -62 16 -25 3
-53 8 -62 11 -10 3 -18 1 -18 -5 0 -14 27 -27 75 -36 109 -19 143 -47 137
-115 -1 -14 7 -36 18 -50 l21 -25 -3 70 -3 70 40 21 c30 15 43 30 53 59 7 22
12 48 10 60 -2 15 -7 11 -20 -20z"/>
<path d="M1937 274 c-3 -4 -2 -14 3 -24 5 -10 8 -19 5 -21 -2 -3 3 -52 10
-109 8 -58 15 -108 15 -112 0 -5 7 -8 16 -8 12 0 14 7 10 27 -2 16 -7 55 -11
88 -8 84 -25 165 -34 165 -4 0 -11 -3 -14 -6z"/>
</g>
</svg>
